<svg width="368" height="349" viewBox="0 0 368 349" fill="none" xmlns="http://www.w3.org/2000/svg">
<mask id="path-1-inside-1_103_107" fill="white">
<path d="M303.272 177.654C308.53 177.77 312.921 173.597 312.664 168.344C311.894 152.588 308.355 137.064 302.185 122.492C294.776 104.992 283.741 89.2608 269.808 76.337C255.875 63.4132 239.36 53.59 221.353 47.5152C206.359 42.4567 190.614 40.0929 174.844 40.5073C169.587 40.6455 165.755 45.3373 166.265 50.5715C166.775 55.8057 171.434 59.5942 176.693 59.5175C189.777 59.3267 202.823 61.3625 215.266 65.5603C230.722 70.7746 244.897 79.2064 256.857 90.2996C268.816 101.393 278.288 114.895 284.648 129.917C289.768 142.01 292.777 154.866 293.569 167.927C293.887 173.177 298.014 177.539 303.272 177.654Z"/>
</mask>
<path d="M303.272 177.654C308.53 177.77 312.921 173.597 312.664 168.344C311.894 152.588 308.355 137.064 302.185 122.492C294.776 104.992 283.741 89.2608 269.808 76.337C255.875 63.4132 239.36 53.59 221.353 47.5152C206.359 42.4567 190.614 40.0929 174.844 40.5073C169.587 40.6455 165.755 45.3373 166.265 50.5715C166.775 55.8057 171.434 59.5942 176.693 59.5175C189.777 59.3267 202.823 61.3625 215.266 65.5603C230.722 70.7746 244.897 79.2064 256.857 90.2996C268.816 101.393 278.288 114.895 284.648 129.917C289.768 142.01 292.777 154.866 293.569 167.927C293.887 173.177 298.014 177.539 303.272 177.654Z" stroke="#FE9101" stroke-width="26.2767" mask="url(#path-1-inside-1_103_107)"/>
<mask id="path-2-inside-2_103_107" fill="white">
<path d="M158.125 298.184C157.272 303.373 160.788 308.307 166.025 308.79C189.238 310.931 212.669 307.004 233.992 297.315C255.315 287.627 273.686 272.561 287.342 253.668C290.422 249.405 289.019 243.512 284.549 240.741C280.08 237.97 274.241 239.374 271.11 243.6C259.475 259.308 244.006 271.848 226.114 279.977C208.223 288.106 188.602 291.51 169.118 289.942C163.876 289.52 158.977 292.994 158.125 298.184Z"/>
</mask>
<path d="M158.125 298.184C157.272 303.373 160.788 308.307 166.025 308.79C189.238 310.931 212.669 307.004 233.992 297.315C255.315 287.627 273.686 272.561 287.342 253.668C290.422 249.405 289.019 243.512 284.549 240.741C280.08 237.97 274.241 239.374 271.11 243.6C259.475 259.308 244.006 271.848 226.114 279.977C208.223 288.106 188.602 291.51 169.118 289.942C163.876 289.52 158.977 292.994 158.125 298.184Z" stroke="black" stroke-width="26.2767" mask="url(#path-2-inside-2_103_107)"/>
<mask id="path-3-inside-3_103_107" fill="white">
<path d="M85.4525 91.4111C81.5408 87.8962 75.4906 88.1983 72.2612 92.349C62.5742 104.8 55.1382 118.878 50.3174 133.951C44.5279 152.052 42.6415 171.174 44.7826 190.057C46.9236 208.94 53.0435 227.155 62.7386 243.5C70.8116 257.11 81.2109 269.167 93.4396 279.133C97.5163 282.455 103.481 281.395 106.506 277.093C109.531 272.792 108.468 266.881 104.43 263.511C94.3833 255.127 85.8176 245.079 79.1182 233.784C70.7964 219.754 65.5434 204.12 63.7057 187.911C61.8679 171.703 63.4871 155.289 68.4565 139.753C72.457 127.245 78.5557 115.534 86.47 105.113C89.6506 100.925 89.3642 94.9261 85.4525 91.4111Z"/>
</mask>
<path d="M85.4525 91.4111C81.5408 87.8962 75.4906 88.1983 72.2612 92.349C62.5742 104.8 55.1382 118.878 50.3174 133.951C44.5279 152.052 42.6415 171.174 44.7826 190.057C46.9236 208.94 53.0435 227.155 62.7386 243.5C70.8116 257.11 81.2109 269.167 93.4396 279.133C97.5163 282.455 103.481 281.395 106.506 277.093C109.531 272.792 108.468 266.881 104.43 263.511C94.3833 255.127 85.8176 245.079 79.1182 233.784C70.7964 219.754 65.5434 204.12 63.7057 187.911C61.8679 171.703 63.4871 155.289 68.4565 139.753C72.457 127.245 78.5557 115.534 86.47 105.113C89.6506 100.925 89.3642 94.9261 85.4525 91.4111Z" stroke="black" stroke-width="26.2767" mask="url(#path-3-inside-3_103_107)"/>
<path d="M245.971 118.813C245.977 114.698 244.761 110.674 242.478 107.251C240.194 103.828 236.946 101.159 233.145 99.5838C229.343 98.0083 225.16 97.5966 221.124 98.4009C217.088 99.2053 213.382 101.189 210.475 104.102L191.513 123.065L147.716 108.488C146.55 108.122 145.306 108.079 144.118 108.364C142.929 108.65 141.841 109.252 140.968 110.108L124.907 126.034C124.146 126.804 123.581 127.745 123.261 128.779C122.94 129.813 122.873 130.909 123.065 131.974C123.257 133.04 123.702 134.043 124.363 134.9C125.024 135.757 125.882 136.443 126.864 136.899L161.82 152.757L144.274 170.303L132.735 164.499C131.489 163.825 130.062 163.56 128.657 163.742C127.252 163.923 125.94 164.543 124.907 165.512L112.962 177.726C111.705 178.99 111 180.701 111 182.484C111 184.266 111.705 185.977 112.962 187.241L156.759 231.038C158.023 232.295 159.734 233 161.516 233C163.299 233 165.01 232.295 166.274 231.038L178.488 219.093C179.501 218.091 180.171 216.794 180.401 215.387C180.631 213.981 180.411 212.538 179.771 211.265L173.967 199.725L191.513 182.18L207.371 217.136C207.827 218.118 208.512 218.976 209.37 219.637C210.227 220.298 211.23 220.743 212.295 220.935C213.361 221.127 214.457 221.06 215.491 220.739C216.524 220.419 217.466 219.854 218.236 219.093L234.162 203.167C235.018 202.294 235.62 201.206 235.906 200.017C236.191 198.829 236.148 197.585 235.782 196.419L221.205 152.622L239.898 133.525C241.836 131.598 243.371 129.306 244.414 126.78C245.457 124.254 245.986 121.546 245.971 118.813ZM230.315 124.01L208.451 145.874C207.595 146.747 206.992 147.835 206.707 149.024C206.422 150.213 206.465 151.456 206.831 152.622L221.408 196.351L215.334 202.425L199.476 167.536C199.026 166.545 198.342 165.678 197.485 165.008C196.627 164.338 195.62 163.886 194.549 163.69C193.47 163.493 192.359 163.562 191.312 163.891C190.266 164.22 189.315 164.8 188.543 165.579L160.74 193.652C159.742 194.649 159.082 195.934 158.852 197.326C158.622 198.718 158.834 200.147 159.458 201.413L164.992 212.75L161.213 216.529L127.269 182.517L131.25 179.008L142.79 184.812C144.055 185.436 145.484 185.648 146.876 185.418C148.268 185.188 149.553 184.528 150.55 183.53L178.488 155.457C179.264 154.687 179.841 153.741 180.17 152.7C180.499 151.658 180.571 150.552 180.378 149.477C180.186 148.402 179.735 147.389 179.065 146.527C178.395 145.664 177.526 144.977 176.531 144.524L141.373 128.666L147.446 122.592L191.175 137.169C192.341 137.535 193.585 137.578 194.774 137.293C195.962 137.008 197.051 136.405 197.924 135.549L219.788 113.685C220.461 112.997 221.264 112.451 222.15 112.078C223.037 111.705 223.989 111.512 224.95 111.512C225.912 111.512 226.864 111.705 227.751 112.078C228.637 112.451 229.44 112.997 230.113 113.685C230.817 114.337 231.374 115.132 231.746 116.016C232.118 116.9 232.298 117.854 232.272 118.813C232.309 119.766 232.155 120.717 231.819 121.609C231.483 122.501 230.971 123.318 230.315 124.01Z" fill="black"/>
</svg>
