<svg width="106" height="107" viewBox="0 0 106 107" fill="none" xmlns="http://www.w3.org/2000/svg">
<path d="M53.0885 0.821045C23.8931 0.821045 0.238388 24.4757 0.238388 53.6711C0.238388 82.8665 23.8931 106.521 53.0885 106.521C82.2839 106.521 105.939 82.8665 105.939 53.6711C105.939 24.4757 82.2839 0.821045 53.0885 0.821045ZM53.0885 96.2921C29.5403 96.2921 10.4674 77.2192 10.4674 53.6711C10.4674 30.123 29.5403 11.0501 53.0885 11.0501C76.6366 11.0501 95.7095 30.123 95.7095 53.6711C95.7095 77.2192 76.6366 96.2921 53.0885 96.2921ZM66.2584 74.044L48.1657 60.8954C47.5051 60.4052 47.1215 59.6381 47.1215 58.8283V23.8364C47.1215 22.4299 48.2723 21.2791 49.6788 21.2791H56.4981C57.9046 21.2791 59.0554 22.4299 59.0554 23.8364V54.0334L73.2908 64.3903C74.4416 65.2214 74.676 66.8197 73.8449 67.9705L69.8385 73.4899C69.0074 74.6194 67.4091 74.8751 66.2584 74.044Z" fill="black"/>
</svg>
