<svg width="136" height="117" viewBox="0 0 136 117" fill="none" xmlns="http://www.w3.org/2000/svg">
<path d="M118.433 22.4196V94.6696H17.2665V22.4196H118.433ZM118.433 15.1946H17.2665C15.0305 15.1946 12.8862 15.9558 11.3051 17.3107C9.7241 18.6657 8.83588 20.5034 8.83588 22.4196V94.6696C8.83588 96.5858 9.7241 98.4235 11.3051 99.7785C12.8862 101.133 15.0305 101.895 17.2665 101.895H118.433C120.669 101.895 122.814 101.133 124.395 99.7785C125.976 98.4235 126.864 96.5858 126.864 94.6696V22.4196C126.864 20.5034 125.976 18.6657 124.395 17.3107C122.814 15.9558 120.669 15.1946 118.433 15.1946Z" fill="black"/>
<path d="M25.697 36.8694H55.2041V44.0944H25.697V36.8694Z" fill="black"/>
<path d="M25.697 51.3196H42.5582V58.5446H25.697V51.3196Z" fill="black"/>
<path d="M97.3569 65.7695H72.0652C68.7113 65.7695 65.4948 66.9113 63.1232 68.9438C60.7516 70.9762 59.4193 73.7328 59.4193 76.607V83.832H67.8499V76.607C67.8499 75.6489 68.294 74.7301 69.0845 74.0526C69.875 73.3751 70.9472 72.9945 72.0652 72.9945H97.3569C98.4749 72.9945 99.5471 73.3751 100.338 74.0526C101.128 74.7301 101.572 75.6489 101.572 76.607V83.832H110.003V76.607C110.003 73.7328 108.67 70.9762 106.299 68.9438C103.927 66.9113 100.711 65.7695 97.3569 65.7695Z" fill="black"/>
<path d="M84.7111 62.1569C88.046 62.1569 91.3059 61.3094 94.0787 59.7216C96.8515 58.1338 99.0126 55.877 100.289 53.2366C101.565 50.5962 101.899 47.6908 101.248 44.8878C100.598 42.0848 98.9919 39.51 96.6338 37.4892C94.2757 35.4683 91.2713 34.0921 88.0006 33.5345C84.7298 32.9769 81.3396 33.2631 78.2587 34.3568C75.1777 35.4505 72.5443 37.3026 70.6916 39.6789C68.8389 42.0551 67.85 44.8489 67.85 47.7069C67.85 51.5392 69.6264 55.2146 72.7885 57.9245C75.9506 60.6344 80.2393 62.1569 84.7111 62.1569ZM84.7111 40.4818C86.3786 40.4818 88.0085 40.9056 89.3949 41.6995C90.7813 42.4934 91.8619 43.6218 92.5 44.942C93.1381 46.2622 93.305 47.7149 92.9797 49.1164C92.6544 50.5179 91.8515 51.8053 90.6725 52.8157C89.4934 53.8261 87.9912 54.5142 86.3559 54.793C84.7205 55.0718 83.0254 54.9287 81.4849 54.3819C79.9444 53.835 78.6277 52.909 77.7014 51.7208C76.775 50.5327 76.2806 49.1358 76.2806 47.7069C76.2806 45.7907 77.1688 43.953 78.7498 42.598C80.3309 41.2431 82.4752 40.4818 84.7111 40.4818Z" fill="black"/>
</svg>
