<svg width="359" height="122" viewBox="0 0 359 122" fill="none" xmlns="http://www.w3.org/2000/svg">
<g clip-path="url(#clip0_22_63)">
<rect width="358.272" height="121.5" fill="black"/>
<path d="M34.1302 105.243L33.7176 106.318L33.7306 106.323L34.1302 105.243ZM26.8882 100.852L27.6623 99.9986L26.8882 100.852ZM22.0981 94.351L21.0435 94.8144L21.0477 94.8241L21.0522 94.8338L22.0981 94.351ZM22.0981 78.2132L21.0494 77.7365L21.0461 77.7438L22.0981 78.2132ZM26.8882 71.6555L27.6623 72.5086H27.6623L26.8882 71.6555ZM34.1302 67.3216L34.5299 68.4022L34.5428 68.3972L34.1302 67.3216ZM52.3779 67.3216L51.9653 68.3973L51.9783 68.4021L52.3779 67.3216ZM59.6199 71.6555L58.8458 72.5086V72.5086L59.6199 71.6555ZM64.41 78.2132L63.3612 78.6899L63.364 78.696L64.41 78.2132ZM64.41 94.351L65.4559 94.8338L65.4587 94.8277L64.41 94.351ZM52.3779 105.243L52.7775 106.323L52.7904 106.318L52.3779 105.243ZM49.9259 99.7113L50.3146 100.796L50.3236 100.792L50.3326 100.789L49.9259 99.7113ZM55.1721 96.632L55.9291 97.5003L55.9353 97.4949L55.9415 97.4893L55.1721 96.632ZM58.5935 92.013L57.5501 91.5246L57.5455 91.5346L58.5935 92.013ZM58.5935 80.5512L57.5417 81.0212L57.5478 81.0348L57.5542 81.0482L58.5935 80.5512ZM55.1721 75.9323L54.4026 76.7896L54.4088 76.7952L54.415 76.8006L55.1721 75.9323ZM49.9259 72.853L49.5191 73.9308L49.5281 73.9342L49.5371 73.9374L49.9259 72.853ZM36.5822 72.853L36.971 73.9374L36.98 73.9342L36.989 73.9308L36.5822 72.853ZM31.336 75.8752L32.0931 76.7436L31.336 75.8752ZM27.9146 80.4942L28.9626 80.9726L28.9664 80.9641L27.9146 80.4942ZM27.9146 92.013L28.9664 91.5431V91.5431L27.9146 92.013ZM31.336 96.632L32.0931 95.7636L31.336 96.632ZM36.5822 99.7113L36.1755 100.789L36.1845 100.792L36.1935 100.796L36.5822 99.7113ZM43.254 105.63C40.0671 105.63 37.1629 105.136 34.5298 104.162L33.7306 106.323C36.6478 107.402 39.8262 107.934 43.254 107.934V105.63ZM34.5428 104.167C31.8912 103.15 29.602 101.759 27.6623 99.9986L26.114 101.705C28.28 103.67 30.8189 105.206 33.7177 106.318L34.5428 104.167ZM27.6623 99.9986C25.7218 98.2378 24.2185 96.1962 23.1441 93.8683L21.0522 94.8338C22.2587 97.4479 23.9488 99.7401 26.114 101.705L27.6623 99.9986ZM23.1528 93.8876C22.118 91.5325 21.5964 88.9921 21.5964 86.2536H19.2924C19.2924 89.2935 19.8734 92.1514 21.0435 94.8144L23.1528 93.8876ZM21.5964 86.2536C21.5964 83.515 22.118 80.9961 23.1502 78.6826L21.0461 77.7438C19.8733 80.3724 19.2924 83.2138 19.2924 86.2536H21.5964ZM23.1469 78.6899C24.222 76.3246 25.725 74.2665 27.6623 72.5086L26.114 70.8023C23.9456 72.7699 22.2552 75.0837 21.0494 77.7365L23.1469 78.6899ZM27.6623 72.5086C29.5988 70.7514 31.8835 69.3809 34.5298 68.4021L33.7306 66.2412C30.8266 67.3152 28.2832 68.834 26.114 70.8023L27.6623 72.5086ZM34.5428 68.3972C37.1722 67.3887 40.0718 66.877 43.254 66.877V64.573C39.8215 64.573 36.6385 65.1257 33.7177 66.246L34.5428 68.3972ZM43.254 66.877C46.4363 66.877 49.3359 67.3887 51.9653 68.3972L52.7904 66.246C49.8696 65.1257 46.6866 64.573 43.254 64.573V66.877ZM51.9783 68.4021C54.6246 69.3809 56.9093 70.7514 58.8458 72.5086L60.3941 70.8023C58.2249 68.834 55.6815 67.3152 52.7775 66.2412L51.9783 68.4021ZM58.8458 72.5086C60.7831 74.2665 62.2861 76.3246 63.3612 78.6899L65.4587 77.7365C64.2529 75.0837 62.5625 72.7699 60.3941 70.8023L58.8458 72.5086ZM63.364 78.696C64.4304 81.0064 64.9687 83.5206 64.9687 86.2536H67.2727C67.2727 83.2082 66.6705 80.3621 65.4559 77.7305L63.364 78.696ZM64.9687 86.2536C64.9687 88.9865 64.4304 91.5222 63.3612 93.8743L65.4587 94.8277C66.6705 92.1617 67.2727 89.2991 67.2727 86.2536H64.9687ZM63.364 93.8683C62.2896 96.1962 60.7863 98.2378 58.8458 99.9986L60.3941 101.705C62.5593 99.7401 64.2494 97.4479 65.4559 94.8338L63.364 93.8683ZM58.8458 99.9986C56.9061 101.759 54.6169 103.15 51.9653 104.167L52.7904 106.318C55.6892 105.206 58.2281 103.67 60.3941 101.705L58.8458 99.9986ZM51.9783 104.162C49.3452 105.136 46.441 105.63 43.254 105.63V107.934C46.6819 107.934 49.8603 107.402 52.7775 106.323L51.9783 104.162ZM43.254 101.947C45.8017 101.947 48.1592 101.568 50.3146 100.796L49.5371 98.6268C47.6628 99.2988 45.5725 99.6427 43.254 99.6427V101.947ZM50.3326 100.789C52.4636 99.9849 54.3337 98.8911 55.9291 97.5003L54.415 95.7636C53.0452 96.9579 51.4179 97.917 49.5191 98.6335L50.3326 100.789ZM55.9415 97.4893C57.5377 96.0569 58.7749 94.3896 59.6415 92.4914L57.5455 91.5346C56.8154 93.134 55.7717 94.5459 54.4026 95.7746L55.9415 97.4893ZM59.6369 92.5014C60.5477 90.5555 61 88.4682 61 86.2536H58.696C58.696 88.1447 58.312 89.897 57.5502 91.5247L59.6369 92.5014ZM61 86.2536C61 84.0391 60.5477 81.9672 59.6328 80.0542L57.5542 81.0482C58.312 82.6327 58.696 84.3624 58.696 86.2536H61ZM59.6453 80.0813C58.7784 78.1411 57.537 76.4657 55.9291 75.0639L54.415 76.8006C55.7723 77.9839 56.8119 79.3878 57.5417 81.0212L59.6453 80.0813ZM55.9415 75.0749C54.3398 73.6375 52.4593 72.5374 50.3146 71.7685L49.5371 73.9374C51.4221 74.6131 53.0391 75.5659 54.4026 76.7896L55.9415 75.0749ZM50.3326 71.7751C48.172 70.9598 45.8081 70.5605 43.254 70.5605V72.8645C45.566 72.8645 47.65 73.2254 49.5191 73.9308L50.3326 71.7751ZM43.254 70.5605C40.7 70.5605 38.3361 70.9598 36.1755 71.7751L36.989 73.9308C38.8581 73.2254 40.9421 72.8645 43.254 72.8645V70.5605ZM36.1935 71.7685C34.0555 72.535 32.179 73.612 30.579 75.0069L32.0931 76.7436C33.4583 75.5534 35.0793 74.6155 36.971 73.9374L36.1935 71.7685ZM30.579 75.0069C28.9711 76.4087 27.7297 78.0841 26.8628 80.0242L28.9664 80.9641C29.6962 79.3308 30.7358 77.9269 32.0931 76.7436L30.579 75.0069ZM26.8666 80.0158C25.9939 81.9275 25.5651 84.0123 25.5651 86.2536H27.8691C27.8691 84.3132 28.2386 82.5584 28.9626 80.9726L26.8666 80.0158ZM25.5651 86.2536C25.5651 88.4603 25.9952 90.5411 26.8628 92.483L28.9664 91.5431C28.2373 89.9114 27.8691 88.1526 27.8691 86.2536H25.5651ZM26.8628 92.483C27.7297 94.4231 28.9711 96.0985 30.579 97.5003L32.0931 95.7636C30.7358 94.5803 29.6962 93.1764 28.9664 91.5431L26.8628 92.483ZM30.579 97.5003C32.1744 98.8911 34.0445 99.9849 36.1755 100.789L36.989 98.6335C35.0902 97.917 33.4629 96.9579 32.0931 95.7636L30.579 97.5003ZM36.1935 100.796C38.3489 101.568 40.7064 101.947 43.254 101.947V99.6427C40.9356 99.6427 38.8453 99.2988 36.971 98.6268L36.1935 100.796ZM81.102 106.212H79.95V107.364H81.102V106.212ZM81.102 66.2952V65.1432H79.95V66.2952H81.102ZM87.1465 66.2952L88.0667 65.6022L87.7211 65.1432H87.1465V66.2952ZM104.368 89.1618L104.34 90.3135L106.72 90.3702L105.288 88.4688L104.368 89.1618ZM101.973 89.1048L101.053 88.4107L99.7001 90.203L101.945 90.2565L101.973 89.1048ZM119.194 66.2952V65.1432H118.62L118.275 65.6011L119.194 66.2952ZM125.124 66.2952H126.276V65.1432H125.124V66.2952ZM125.124 106.212V107.364H126.276V106.212H125.124ZM118.966 106.212H117.814V107.364H118.966V106.212ZM120.106 72.0546L121.21 71.7236L118.969 71.8702L120.106 72.0546ZM120.791 74.3356L121.702 75.0406L122.064 74.572L121.894 74.0046L120.791 74.3356ZM104.995 94.7502V95.9022H105.56L105.906 95.4551L104.995 94.7502ZM101.231 94.7502L100.32 95.4548L100.666 95.9022H101.231V94.7502ZM85.4928 74.3926L84.3801 74.0941L84.2322 74.6455L84.5814 75.0972L85.4928 74.3926ZM86.1201 72.0546L87.2568 71.8678L85.0074 71.7561L86.1201 72.0546ZM87.0324 80.3801L85.8822 80.4432L85.8822 80.444L87.0324 80.3801ZM87.2605 106.212V107.364H88.4125V106.212H87.2605ZM82.254 106.212V66.2952H79.95V106.212H82.254ZM81.102 67.4472H87.1465V65.1432H81.102V67.4472ZM86.2263 66.9882L103.448 89.8549L105.288 88.4688L88.0667 65.6022L86.2263 66.9882ZM104.395 88.0102L102 87.9531L101.945 90.2565L104.34 90.3135L104.395 88.0102ZM102.892 89.7989L120.113 66.9893L118.275 65.6011L101.053 88.4107L102.892 89.7989ZM119.194 67.4472H125.124V65.1432H119.194V67.4472ZM123.972 66.2952V106.212H126.276V66.2952H123.972ZM125.124 105.06H118.966V107.364H125.124V105.06ZM120.118 106.212V89.4469H117.814V106.212H120.118ZM120.118 89.4469C120.118 86.2333 120.194 83.2513 120.344 80.5002L118.044 80.3741C117.89 83.1733 117.814 86.1978 117.814 89.4469H120.118ZM120.344 80.5002C120.494 77.7667 120.794 75.013 121.244 72.239L118.969 71.8702C118.507 74.7226 118.198 77.5573 118.044 80.3741L120.344 80.5002ZM119.003 72.3857L119.687 74.6666L121.894 74.0046L121.21 71.7236L119.003 72.3857ZM119.88 73.6306L104.084 94.0452L105.906 95.4551L121.702 75.0406L119.88 73.6306ZM104.995 93.5982H101.231V95.9022H104.995V93.5982ZM102.143 94.0456L86.4042 73.688L84.5814 75.0972L100.32 95.4548L102.143 94.0456ZM86.6054 74.6911L87.2327 72.3531L85.0074 71.7561L84.3801 74.0941L86.6054 74.6911ZM84.9833 72.2415C85.4328 74.9761 85.7324 77.71 85.8822 80.4432L88.1827 80.3171C88.0284 77.5 87.7197 74.6834 87.2568 71.8678L84.9833 72.2415ZM85.8822 80.444C86.0329 83.1561 86.1085 86.1567 86.1085 89.4469H88.4125C88.4125 86.1224 88.3361 83.0785 88.1827 80.3162L85.8822 80.444ZM86.1085 89.4469V106.212H88.4125V89.4469H86.1085ZM87.2605 105.06H81.102V107.364H87.2605V105.06ZM147.812 95.6626L146.661 95.6814L146.7 98.0649L148.543 96.5533L147.812 95.6626ZM147.698 88.7056L146.964 87.818L146.537 88.171L146.547 88.7245L147.698 88.7056ZM174.785 66.2952V65.1432H174.37L174.05 65.4076L174.785 66.2952ZM183.624 66.2952L184.354 67.186L186.845 65.1432H183.624V66.2952ZM143.194 106.212H142.042V107.364H143.194V106.212ZM143.194 66.2952V65.1432H142.042V66.2952H143.194ZM149.352 66.2952H150.504V65.1432H149.352V66.2952ZM149.352 106.212V107.364H150.504V106.212H149.352ZM175.07 106.212L174.168 106.928L174.513 107.364H175.07V106.212ZM158.191 84.9421L157.319 84.1888L156.695 84.9107L157.288 85.6582L158.191 84.9421ZM162.182 80.3231L163.078 79.5989L162.212 78.5271L161.311 79.5699L162.182 80.3231ZM183.11 106.212V107.364H185.523L184.006 105.488L183.11 106.212ZM148.964 95.6437L148.85 88.6868L146.547 88.7245L146.661 95.6814L148.964 95.6437ZM148.433 89.5932L175.519 67.1828L174.05 65.4076L146.964 87.818L148.433 89.5932ZM174.785 67.4472H183.624V65.1432H174.785V67.4472ZM182.893 65.4044L147.082 94.7718L148.543 96.5533L184.354 67.186L182.893 65.4044ZM144.346 106.212V66.2952H142.042V106.212H144.346ZM143.194 67.4472H149.352V65.1432H143.194V67.4472ZM148.2 66.2952V106.212H150.504V66.2952H148.2ZM149.352 105.06H143.194V107.364H149.352V105.06ZM175.972 105.496L159.093 84.2259L157.288 85.6582L174.168 106.928L175.972 105.496ZM159.062 85.6953L163.054 81.0764L161.311 79.5699L157.319 84.1888L159.062 85.6953ZM161.287 81.0473L182.214 106.936L184.006 105.488L163.078 79.5989L161.287 81.0473ZM183.11 105.06H175.07V107.364H183.11V105.06ZM193.978 106.212L192.932 105.731L192.18 107.364H193.978V106.212ZM212.34 66.2952V65.1432H211.602L211.293 65.8138L212.34 66.2952ZM219.297 66.2952L220.345 65.8162L220.037 65.1432H219.297V66.2952ZM237.545 106.212V107.364H239.338L238.592 105.733L237.545 106.212ZM230.816 106.212L229.769 106.694L230.078 107.364H230.816V106.212ZM218.613 79.6958L217.557 80.1576L217.562 80.1676L217.566 80.1775L218.613 79.6958ZM217.7 77.643L216.641 78.0968L216.645 78.1063L216.65 78.1157L217.7 77.643ZM215.647 72.6819L214.565 73.0756L214.573 73.097L214.581 73.1181L215.647 72.6819ZM214.849 70.2869L214.809 69.1356L213.316 69.187L213.746 70.6179L214.849 70.2869ZM216.503 70.2299L217.585 70.6235L218.169 69.0197L216.463 69.0785L216.503 70.2299ZM215.533 72.7959L214.461 72.3762L214.455 72.3891L214.451 72.4023L215.533 72.7959ZM214.564 75.305L215.623 75.7588L215.627 75.75L215.63 75.7412L214.564 75.305ZM213.538 77.7L214.588 78.1727L214.592 78.1633L214.596 78.1538L213.538 77.7ZM212.511 79.9239L211.47 79.4308L211.464 79.4426L212.511 79.9239ZM200.422 106.212V107.364H201.16L201.469 106.693L200.422 106.212ZM202.019 96.689L200.95 96.2576L200.311 97.841H202.019V96.689ZM204.414 90.7585V89.6065H203.637L203.346 90.3271L204.414 90.7585ZM226.539 90.7585L227.659 90.4892L227.447 89.6065H226.539V90.7585ZM227.965 96.689V97.841H229.426L229.085 96.4197L227.965 96.689ZM195.025 106.693L213.387 66.7766L211.293 65.8138L192.932 105.731L195.025 106.693ZM212.34 67.4472H219.297V65.1432H212.34V67.4472ZM218.249 66.7742L236.497 106.691L238.592 105.733L220.345 65.8162L218.249 66.7742ZM237.545 105.06H230.816V107.364H237.545V105.06ZM231.862 105.73L219.659 79.2142L217.566 80.1775L229.769 106.694L231.862 105.73ZM219.668 79.2341C219.4 78.6214 219.094 77.9333 218.751 77.1702L216.65 78.1157C216.991 78.8733 217.293 79.5538 217.557 80.1576L219.668 79.2341ZM218.759 77.1892C218.42 76.3969 218.08 75.5855 217.74 74.7548L215.608 75.6271C215.952 76.4691 216.297 77.2924 216.641 78.0968L218.759 77.1892ZM217.74 74.7548C217.398 73.9184 217.056 73.0821 216.714 72.2457L214.581 73.1181C214.923 73.9544 215.265 74.7908 215.608 75.6271L217.74 74.7548ZM216.73 72.2882C216.433 71.4701 216.174 70.6928 215.952 69.9559L213.746 70.6179C213.981 71.4016 214.254 72.221 214.565 73.0756L216.73 72.2882ZM214.889 71.4382L216.542 71.3812L216.463 69.0785L214.809 69.1356L214.889 71.4382ZM215.42 69.8362C215.119 70.6633 214.8 71.51 214.461 72.3762L216.606 73.2157C216.952 72.3332 217.278 71.4691 217.585 70.6235L215.42 69.8362ZM214.451 72.4023C214.152 73.2241 213.834 74.0463 213.498 74.8688L215.63 75.7412C215.978 74.891 216.307 74.0405 216.616 73.1896L214.451 72.4023ZM213.505 74.8512C213.477 74.9178 213.405 75.084 213.377 75.1506C213.348 75.2172 213.277 75.3833 213.248 75.45C213.22 75.5166 213.149 75.6827 213.12 75.7493C213.092 75.8159 213.02 75.9821 212.992 76.0487C212.966 76.1086 212.953 76.1385 212.928 76.1984C212.902 76.2583 212.889 76.2882 212.864 76.3481C212.838 76.408 212.825 76.4379 212.799 76.4978C212.774 76.5577 212.761 76.5875 212.735 76.6475C212.71 76.7074 212.697 76.7372 212.671 76.7971C212.645 76.8571 212.633 76.8869 212.607 76.9468C212.581 77.0067 212.568 77.0366 212.543 77.0965C212.517 77.1564 212.504 77.1863 212.479 77.2462L214.596 78.1538C214.625 78.0872 214.696 77.921 214.725 77.8544C214.753 77.7878 214.824 77.6217 214.853 77.555C214.882 77.4884 214.953 77.3223 214.981 77.2557C215.01 77.189 215.081 77.0229 215.11 76.9563C215.135 76.8964 215.148 76.8665 215.174 76.8066C215.199 76.7467 215.212 76.7168 215.238 76.6569C215.264 76.597 215.276 76.5671 215.302 76.5072C215.328 76.4473 215.341 76.4175 215.366 76.3575C215.392 76.2976 215.405 76.2678 215.43 76.2079C215.456 76.1479 215.469 76.1181 215.495 76.0582C215.52 75.9983 215.533 75.9684 215.559 75.9085C215.584 75.8486 215.597 75.8187 215.623 75.7588L213.505 74.8512ZM212.487 77.2273C212.148 77.981 211.809 78.7155 211.47 79.4308L213.552 80.4171C213.898 79.6877 214.243 78.9396 214.588 78.1727L212.487 77.2273ZM211.464 79.4426L199.375 105.731L201.469 106.693L213.558 80.4053L211.464 79.4426ZM200.422 105.06H193.978V107.364H200.422V105.06ZM203.087 97.1204L205.482 91.1899L203.346 90.3271L200.95 96.2576L203.087 97.1204ZM204.414 91.9105H226.539V89.6065H204.414V91.9105ZM225.419 91.0278L226.844 96.9582L229.085 96.4197L227.659 90.4892L225.419 91.0278ZM227.965 95.537H202.019V97.841H227.965V95.537ZM250.726 106.212H249.574V107.364H250.726V106.212ZM250.726 66.2952V65.1432H249.574V66.2952H250.726ZM278.725 67.9489L278.155 68.9503V68.9503L278.725 67.9489ZM283.401 72.3968L282.427 73.0127L283.401 72.3968ZM283.287 85.1131L284.248 85.7477L284.254 85.7389L283.287 85.1131ZM278.269 89.7321L278.828 90.7391L278.834 90.7356L278.269 89.7321ZM256.885 91.4428V90.2908H255.733V91.4428H256.885ZM256.885 106.212V107.364H258.037V106.212H256.885ZM279.637 106.212L278.693 106.872L279.034 107.36L279.629 107.364L279.637 106.212ZM267.035 88.1924L266.788 87.0672L265.101 87.4372L266.091 88.8526L267.035 88.1924ZM273.536 86.7668L274.477 86.1032L274.036 85.4776L273.289 85.6416L273.536 86.7668ZM287.278 106.269L287.27 107.421L289.511 107.438L288.22 105.605L287.278 106.269ZM256.885 85.5123H255.733V86.6643H256.885V85.5123ZM274.961 84.5999L275.503 85.6164L275.516 85.6094L275.529 85.6022L274.961 84.5999ZM277.641 82.0909L276.672 81.4679L276.667 81.4771L277.641 82.0909ZM277.584 75.419L276.637 76.0748L276.652 76.0958L276.667 76.1161L277.584 75.419ZM274.733 73.0811L275.222 72.038L274.733 73.0811ZM256.885 72.2257V71.0737H255.733V72.2257H256.885ZM251.878 106.212V66.2952H249.574V106.212H251.878ZM250.726 67.4472H272.281V65.1432H250.726V67.4472ZM272.281 67.4472C274.45 67.4472 276.4 67.9522 278.155 68.9503L279.294 66.9475C277.172 65.7407 274.826 65.1432 272.281 65.1432V67.4472ZM278.155 68.9503C279.932 69.9605 281.351 71.3116 282.427 73.0127L284.374 71.7809C283.094 69.7564 281.395 68.1422 279.294 66.9475L278.155 68.9503ZM282.427 73.0127C283.483 74.6814 284.017 76.5566 284.017 78.6694H286.321C286.321 76.1443 285.676 73.8377 284.374 71.7809L282.427 73.0127ZM284.017 78.6694C284.017 80.8092 283.451 82.739 282.32 84.4873L284.254 85.7389C285.632 83.6097 286.321 81.2436 286.321 78.6694H284.017ZM282.325 84.4786C281.177 86.2184 279.643 87.6348 277.703 88.7285L278.834 90.7356C281.076 89.4723 282.888 87.8094 284.248 85.7477L282.325 84.4786ZM277.709 88.725C275.837 89.7654 273.769 90.2908 271.483 90.2908V92.5948C274.139 92.5948 276.595 91.9797 278.828 90.7391L277.709 88.725ZM271.483 90.2908H256.885V92.5948H271.483V90.2908ZM255.733 91.4428V106.212H258.037V91.4428H255.733ZM256.885 105.06H250.726V107.364H256.885V105.06ZM280.581 105.552L267.979 87.5322L266.091 88.8526L278.693 106.872L280.581 105.552ZM267.282 89.3177L273.782 87.8921L273.289 85.6416L266.788 87.0672L267.282 89.3177ZM272.594 87.4304L286.337 106.933L288.22 105.605L274.477 86.1032L272.594 87.4304ZM287.287 105.117L279.646 105.06L279.629 107.364L287.27 107.421L287.287 105.117ZM256.885 86.6643H271.255V84.3603H256.885V86.6643ZM271.255 86.6643C272.769 86.6643 274.191 86.3163 275.503 85.6164L274.419 83.5834C273.451 84.1 272.402 84.3603 271.255 84.3603V86.6643ZM275.529 85.6022C276.822 84.8698 277.86 83.9051 278.616 82.7047L276.667 81.4771C276.13 82.3295 275.382 83.0375 274.393 83.5976L275.529 85.6022ZM278.61 82.7138C279.409 81.4714 279.82 80.116 279.82 78.6694H277.516C277.516 79.6559 277.242 80.5814 276.672 81.4679L278.61 82.7138ZM279.82 78.6694C279.82 77.2063 279.379 75.8769 278.502 74.722L276.667 76.1161C277.234 76.862 277.516 77.6995 277.516 78.6694H279.82ZM278.532 74.7633C277.718 73.5885 276.601 72.6842 275.222 72.038L274.244 74.1241C275.299 74.6184 276.082 75.2727 276.637 76.0748L278.532 74.7633ZM275.222 72.038C273.845 71.3926 272.366 71.0737 270.799 71.0737V73.3777C272.044 73.3777 273.188 73.629 274.244 74.1241L275.222 72.038ZM270.799 71.0737H256.885V73.3777H270.799V71.0737ZM255.733 72.2257V85.5123H258.037V72.2257H255.733ZM299.416 106.212H298.264V107.364H299.416V106.212ZM299.416 101.707L298.561 100.935L298.264 101.264V101.707H299.416ZM326.902 71.2563L327.453 70.245L326.655 69.8098L326.047 70.4844L326.902 71.2563ZM328.783 72.2827V73.4347L329.335 71.2714L328.783 72.2827ZM300.899 72.2827H299.747V73.4347H300.899V72.2827ZM300.899 66.2952V65.1432H299.747V66.2952H300.899ZM335.569 66.2952H336.721V65.1432H335.569V66.2952ZM335.569 70.7431L336.425 71.5142L336.721 71.1855V70.7431H335.569ZM308.084 101.251L307.519 102.255L308.323 102.707L308.94 102.022L308.084 101.251ZM306.259 100.224V99.0725H301.861L305.694 101.229L306.259 100.224ZM336.197 100.224H337.349V99.0725H336.197V100.224ZM336.197 106.212V107.364H337.349V106.212H336.197ZM300.568 106.212V101.707H298.264V106.212H300.568ZM300.271 102.479L327.757 72.0282L326.047 70.4844L298.561 100.935L300.271 102.479ZM326.35 72.2676L328.232 73.2941L329.335 71.2714L327.453 70.245L326.35 72.2676ZM328.783 71.1307H300.899V73.4347H328.783V71.1307ZM302.051 72.2827V66.2952H299.747V72.2827H302.051ZM300.899 67.4472H335.569V65.1432H300.899V67.4472ZM334.417 66.2952V70.7431H336.721V66.2952H334.417ZM334.713 69.972L307.228 100.48L308.94 102.022L336.425 71.5142L334.713 69.972ZM308.649 100.247L306.824 99.2204L305.694 101.229L307.519 102.255L308.649 100.247ZM306.259 101.376H336.197V99.0725H306.259V101.376ZM335.045 100.224V106.212H337.349V100.224H335.045ZM336.197 105.06H299.416V107.364H336.197V105.06Z" fill="white"/>
<path d="M42.9696 80.14C39.6288 80.14 36.5568 79.6216 33.7536 78.5848C30.9504 77.5096 28.512 76.0312 26.4384 74.1496C24.3648 72.268 22.752 70.0792 21.6 67.5832C20.4864 65.0488 19.9296 62.3224 19.9296 59.404C19.9296 56.4856 20.4864 53.7784 21.6 51.2824C22.752 48.748 24.3648 46.54 26.4384 44.6584C28.512 42.7768 30.9504 41.3176 33.7536 40.2808C36.5568 39.2056 39.6288 38.668 42.9696 38.668C46.3104 38.668 49.3824 39.2056 52.1856 40.2808C54.9888 41.3176 57.4272 42.7768 59.5008 44.6584C61.5744 46.54 63.1872 48.748 64.3392 51.2824C65.4912 53.7784 66.0672 56.4856 66.0672 59.404C66.0672 62.3224 65.4912 65.0488 64.3392 67.5832C63.1872 70.0792 61.5744 72.268 59.5008 74.1496C57.4272 76.0312 54.9888 77.5096 52.1856 78.5848C49.3824 79.6216 46.3104 80.14 42.9696 80.14ZM42.9696 74.092C45.4272 74.092 47.6736 73.7272 49.7088 72.9976C51.744 72.2296 53.5104 71.1928 55.008 69.8872C56.5056 68.5432 57.6576 66.988 58.464 65.2216C59.3088 63.4168 59.7312 61.4776 59.7312 59.404C59.7312 57.3304 59.3088 55.4104 58.464 53.644C57.6576 51.8392 56.5056 50.284 55.008 48.9784C53.5104 47.6344 51.744 46.5976 49.7088 45.868C47.6736 45.1 45.4272 44.716 42.9696 44.716C40.512 44.716 38.2656 45.1 36.2304 45.868C34.1952 46.5976 32.4288 47.6152 30.9312 48.9208C29.4336 50.2264 28.2816 51.7816 27.4752 53.5864C26.6688 55.3528 26.2656 57.292 26.2656 59.404C26.2656 61.4776 26.6688 63.4168 27.4752 65.2216C28.2816 67.0264 29.4336 68.5816 30.9312 69.8872C32.4288 71.1928 34.1952 72.2296 36.2304 72.9976C38.2656 73.7272 40.512 74.092 42.9696 74.092ZM81.1998 79.564V39.244H87.3054L104.701 62.3416L102.281 62.284L119.677 39.244H125.667V79.564H119.446V62.6296C119.446 59.3656 119.523 56.332 119.677 53.5288C119.83 50.7256 120.137 47.9032 120.598 45.0616L121.289 47.3656L105.334 67.9864H101.533L85.635 47.4232L86.2686 45.0616C86.7294 47.8648 87.0366 50.668 87.1902 53.4712C87.3438 56.236 87.4206 59.2888 87.4206 62.6296V79.564H81.1998ZM148.584 68.908L148.469 61.8808L175.829 39.244H184.757L148.584 68.908ZM143.919 79.564V39.244H150.139V79.564H143.919ZM176.117 79.564L159.067 58.0792L163.099 53.4136L184.239 79.564H176.117ZM195.216 79.564L213.763 39.244H220.791L239.223 79.564H232.426L220.099 52.78C219.831 52.1656 219.523 51.4744 219.178 50.7064C218.832 49.9 218.487 49.0744 218.141 48.2296C217.795 47.3848 217.45 46.54 217.104 45.6952C216.797 44.8504 216.528 44.044 216.298 43.276L217.968 43.2184C217.661 44.0632 217.335 44.9272 216.989 45.8104C216.682 46.6552 216.355 47.5 216.01 48.3448C215.664 49.1512 215.319 49.9576 214.973 50.764C214.627 51.532 214.282 52.2808 213.936 53.0104L201.725 79.564H195.216ZM203.338 69.9448L205.757 63.9544H228.106L229.546 69.9448H203.338ZM252.537 79.564V39.244H274.31C276.691 39.244 278.86 39.8008 280.819 40.9144C282.777 42.028 284.352 43.5256 285.542 45.4072C286.732 47.2888 287.328 49.4008 287.328 51.7432C287.328 54.124 286.694 56.2936 285.427 58.252C284.16 60.172 282.47 61.7272 280.358 62.9176C278.284 64.0696 276 64.6456 273.504 64.6456H258.758V79.564H252.537ZM281.74 79.564L269.011 61.3624L275.577 59.9224L289.459 79.6216L281.74 79.564ZM258.758 58.6552H273.273C274.617 58.6552 275.865 58.348 277.017 57.7336C278.169 57.0808 279.072 56.236 279.724 55.1992C280.416 54.124 280.761 52.972 280.761 51.7432C280.761 50.5144 280.396 49.42 279.667 48.46C278.976 47.4616 278.016 46.6744 276.787 46.0984C275.558 45.5224 274.233 45.2344 272.812 45.2344H258.758V58.6552ZM301.719 79.564V75.0136L329.482 44.2552L331.383 45.292H303.217V39.244H338.238V43.7368L310.474 74.5528L308.631 73.516H338.871V79.564H301.719Z" fill="white"/>
<path d="M33.7536 56.1208L33.341 57.1964L33.354 57.2012L33.7536 56.1208ZM26.4384 51.6856L27.2125 50.8325L26.4384 51.6856ZM21.6 45.1192L20.5453 45.5826L20.5496 45.5923L20.554 45.6019L21.6 45.1192ZM21.6 28.8184L20.5512 28.3417L20.5479 28.349L21.6 28.8184ZM26.4384 22.1944L27.2125 23.0475V23.0475L26.4384 22.1944ZM33.7536 17.8168L34.1532 18.8973L34.1661 18.8924L33.7536 17.8168ZM52.1856 17.8168L51.773 18.8924L51.7859 18.8972L52.1856 17.8168ZM59.5008 22.1944L58.7266 23.0475L59.5008 22.1944ZM64.3392 28.8184L63.2904 29.2951L63.2932 29.3011L64.3392 28.8184ZM64.3392 45.1192L65.3852 45.6019L65.3879 45.5959L64.3392 45.1192ZM52.1856 56.1208L52.5852 57.2013L52.5981 57.1964L52.1856 56.1208ZM49.7088 50.5336L50.0975 51.618L50.1065 51.6148L50.1155 51.6114L49.7088 50.5336ZM55.008 47.4232L55.765 48.2915L55.7712 48.2861L55.7774 48.2805L55.008 47.4232ZM58.464 42.7576L57.4206 42.2692L57.416 42.2792L58.464 42.7576ZM58.464 31.18L57.4122 31.6499L57.4183 31.6635L57.4247 31.677L58.464 31.18ZM55.008 26.5144L54.2385 27.3717L54.2447 27.3773L54.251 27.3827L55.008 26.5144ZM49.7088 23.404L49.3021 24.4818L49.311 24.4852L49.32 24.4884L49.7088 23.404ZM36.2304 23.404L36.6191 24.4884L36.6281 24.4852L36.6371 24.4818L36.2304 23.404ZM30.9312 26.4568L31.6882 27.3251H31.6882L30.9312 26.4568ZM27.4752 31.1224L28.5232 31.6008L28.527 31.5923L27.4752 31.1224ZM27.4752 42.7576L28.527 42.2876L27.4752 42.7576ZM30.9312 47.4232L31.6882 46.5548L30.9312 47.4232ZM36.2304 50.5336L35.8237 51.6114L35.8326 51.6148L35.8416 51.618L36.2304 50.5336ZM42.9696 56.524C39.7492 56.524 36.8143 56.0246 34.1532 55.0403L33.354 57.2012C36.2992 58.2906 39.5083 58.828 42.9696 58.828V56.524ZM34.1661 55.0452C31.4865 54.0174 29.173 52.6114 27.2125 50.8325L25.6642 52.5387C27.851 54.523 30.4143 56.0738 33.341 57.1964L34.1661 55.0452ZM27.2125 50.8325C25.2513 49.0528 23.7319 46.9893 22.6459 44.6364L20.554 45.6019C21.7721 48.241 23.4783 50.5551 25.6642 52.5387L27.2125 50.8325ZM22.6547 44.6558C21.6087 42.2753 21.0816 39.7076 21.0816 36.94H18.7776C18.7776 40.0091 19.3641 42.8943 20.5453 45.5826L22.6547 44.6558ZM21.0816 36.94C21.0816 34.1722 21.6087 31.6262 22.652 29.2877L20.5479 28.349C19.364 31.0026 18.7776 33.871 18.7776 36.94H21.0816ZM22.6487 29.2951C23.7354 26.9044 25.2544 24.8243 27.2125 23.0475L25.6642 21.3412C23.4751 23.3277 21.7686 25.6636 20.5512 28.3417L22.6487 29.2951ZM27.2125 23.0475C29.1698 21.2715 31.4788 19.8864 34.1532 18.8972L33.354 16.7363C30.4219 17.8208 27.8542 19.3541 25.6642 21.3413L27.2125 23.0475ZM34.1661 18.8924C36.8236 17.8731 39.754 17.356 42.9696 17.356V15.052C39.5036 15.052 36.2899 15.6101 33.341 16.7412L34.1661 18.8924ZM42.9696 17.356C46.1852 17.356 49.1155 17.8731 51.773 18.8924L52.5981 16.7412C49.6492 15.6101 46.4356 15.052 42.9696 15.052V17.356ZM51.7859 18.8972C54.4603 19.8864 56.7694 21.2715 58.7266 23.0475L60.2749 21.3413C58.085 19.3541 55.5172 17.8208 52.5852 16.7363L51.7859 18.8972ZM58.7266 23.0475C60.6847 24.8243 62.2038 26.9044 63.2904 29.2951L65.3879 28.3417C64.1706 25.6636 62.464 23.3277 60.2749 21.3412L58.7266 23.0475ZM63.2932 29.3011C64.3711 31.6365 64.9152 34.1778 64.9152 36.94H67.2192C67.2192 33.8654 66.6113 30.9922 65.3851 28.3356L63.2932 29.3011ZM64.9152 36.94C64.9152 39.702 64.3711 42.265 63.2904 44.6425L65.3879 45.5959C66.6113 42.9045 67.2192 40.0147 67.2192 36.94H64.9152ZM63.2932 44.6364C62.2073 46.9893 60.6879 49.0528 58.7266 50.8325L60.2749 52.5387C62.4609 50.5551 64.1671 48.241 65.3851 45.6019L63.2932 44.6364ZM58.7266 50.8325C56.7662 52.6114 54.4527 54.0174 51.773 55.0452L52.5981 57.1964C55.5249 56.0738 58.0882 54.523 60.2749 52.5387L58.7266 50.8325ZM51.7859 55.0403C49.1248 56.0246 46.1899 56.524 42.9696 56.524V58.828C46.4308 58.828 49.6399 58.2906 52.5852 57.2012L51.7859 55.0403ZM42.9696 52.78C45.5418 52.78 47.9218 52.398 50.0975 51.618L49.32 49.4492C47.4254 50.1284 45.3126 50.476 42.9696 50.476V52.78ZM50.1155 51.6114C52.2668 50.7996 54.1547 49.6954 55.765 48.2915L54.251 46.5548C52.8661 47.7621 51.2211 48.7316 49.3021 49.4558L50.1155 51.6114ZM55.7774 48.2805C57.3885 46.8347 58.6373 45.1518 59.5119 43.236L57.416 42.2792C56.6778 43.8962 55.6226 45.3237 54.2385 46.5658L55.7774 48.2805ZM59.5073 43.246C60.4266 41.282 60.8832 39.1753 60.8832 36.94H58.5792C58.5792 38.8518 58.1909 40.6235 57.4206 42.2692L59.5073 43.246ZM60.8832 36.94C60.8832 34.7047 60.4266 32.6136 59.5032 30.6829L57.4247 31.677C58.1909 33.2791 58.5792 35.028 58.5792 36.94H60.8832ZM59.5158 30.71C58.6408 28.7518 57.3879 27.0609 55.765 25.646L54.251 27.3827C55.6232 28.5791 56.6743 29.9985 57.4122 31.6499L59.5158 30.71ZM55.7774 25.657C54.1608 24.2062 52.2626 23.0957 50.0975 22.3196L49.32 24.4884C51.2254 25.1714 52.86 26.1346 54.2385 27.3717L55.7774 25.657ZM50.1155 22.3262C47.9346 21.5032 45.5482 21.1 42.9696 21.1V23.404C45.3061 23.404 47.4126 23.7688 49.3021 24.4818L50.1155 22.3262ZM42.9696 21.1C40.3909 21.1 38.0046 21.5032 35.8237 22.3262L36.6371 24.4818C38.5266 23.7688 40.633 23.404 42.9696 23.404V21.1ZM35.8416 22.3196C33.6832 23.0933 31.7892 24.1805 30.1742 25.5884L31.6882 27.3251C33.0684 26.1219 34.7071 25.1738 36.6191 24.4884L35.8416 22.3196ZM30.1742 25.5884C28.5512 27.0033 27.2983 28.6942 26.4234 30.6524L28.527 31.5923C29.2648 29.9409 30.3159 28.5215 31.6882 27.3251L30.1742 25.5884ZM26.4272 30.644C25.5464 32.5733 25.1136 34.6775 25.1136 36.94H27.4176C27.4176 34.9784 27.7911 33.2042 28.5231 31.6008L26.4272 30.644ZM25.1136 36.94C25.1136 39.1674 25.5477 41.2676 26.4234 43.2275L28.527 42.2876C27.7899 40.6379 27.4176 38.8597 27.4176 36.94H25.1136ZM26.4234 43.2275C27.2983 45.1857 28.5512 46.8767 30.1742 48.2915L31.6882 46.5548C30.3159 45.3585 29.2648 43.939 28.527 42.2876L26.4234 43.2275ZM30.1742 48.2915C31.7845 49.6954 33.6723 50.7996 35.8237 51.6114L36.6371 49.4558C34.718 48.7316 33.0731 47.7621 31.6882 46.5548L30.1742 48.2915ZM35.8416 51.618C38.0174 52.398 40.3974 52.78 42.9696 52.78V50.476C40.6266 50.476 38.5138 50.1284 36.6191 49.4492L35.8416 51.618ZM81.1998 57.1H80.0478V58.252H81.1998V57.1ZM81.1998 16.78V15.628H80.0478V16.78H81.1998ZM87.3054 16.78L88.2256 16.0869L87.8799 15.628H87.3054V16.78ZM104.701 39.8776L104.673 41.0292L107.053 41.0859L105.621 39.1845L104.701 39.8776ZM102.281 39.82L101.362 39.1258L100.009 40.9182L102.254 40.9716L102.281 39.82ZM119.677 16.78V15.628H119.103L118.757 16.0858L119.677 16.78ZM125.667 16.78H126.819V15.628H125.667V16.78ZM125.667 57.1V58.252H126.819V57.1H125.667ZM119.446 57.1H118.294V58.252H119.446V57.1ZM120.598 22.5976L121.702 22.2666L119.461 22.4132L120.598 22.5976ZM121.289 24.9016L122.2 25.6065L122.563 25.138L122.393 24.5706L121.289 24.9016ZM105.334 45.5224V46.6744H105.899L106.245 46.2273L105.334 45.5224ZM101.533 45.5224L100.621 46.227L100.967 46.6744H101.533V45.5224ZM85.635 24.9592L84.5223 24.6607L84.3744 25.2121L84.7236 25.6638L85.635 24.9592ZM86.2686 22.5976L87.4053 22.4107L85.1559 22.2991L86.2686 22.5976ZM87.1902 31.0072L86.0399 31.0702L86.0399 31.0711L87.1902 31.0072ZM87.4206 57.1V58.252H88.5726V57.1H87.4206ZM82.3518 57.1V16.78H80.0478V57.1H82.3518ZM81.1998 17.932H87.3054V15.628H81.1998V17.932ZM86.3851 17.473L103.78 40.5706L105.621 39.1845L88.2256 16.0869L86.3851 17.473ZM104.728 38.7259L102.309 38.6683L102.254 40.9716L104.673 41.0292L104.728 38.7259ZM103.201 40.5141L120.596 17.4741L118.757 16.0858L101.362 39.1258L103.201 40.5141ZM119.677 17.932H125.667V15.628H119.677V17.932ZM124.515 16.78V57.1H126.819V16.78H124.515ZM125.667 55.948H119.446V58.252H125.667V55.948ZM120.598 57.1V40.1656H118.294V57.1H120.598ZM120.598 40.1656C120.598 36.9193 120.675 33.907 120.827 31.1278L118.526 31.0017C118.371 33.829 118.294 36.8838 118.294 40.1656H120.598ZM120.827 31.1278C120.978 28.3663 121.281 25.5844 121.735 22.782L119.461 22.4132C118.994 25.294 118.682 28.1569 118.526 31.0017L120.827 31.1278ZM119.495 22.9286L120.186 25.2326L122.393 24.5706L121.702 22.2666L119.495 22.9286ZM120.378 24.1966L104.423 44.8174L106.245 46.2273L122.2 25.6065L120.378 24.1966ZM105.334 44.3704H101.533V46.6744H105.334V44.3704ZM102.444 44.8178L86.5464 24.2546L84.7236 25.6638L100.621 46.227L102.444 44.8178ZM86.7476 25.2577L87.3812 22.8961L85.1559 22.2991L84.5223 24.6607L86.7476 25.2577ZM85.1318 22.7844C85.586 25.5471 85.8886 28.309 86.0399 31.0702L88.3404 30.9441C88.1845 28.099 87.8728 25.2544 87.4053 22.4107L85.1318 22.7844ZM86.0399 31.0711C86.1922 33.8108 86.2686 36.8419 86.2686 40.1656H88.5726C88.5726 36.8076 88.4954 33.7332 88.3404 30.9433L86.0399 31.0711ZM86.2686 40.1656V57.1H88.5726V40.1656H86.2686ZM87.4206 55.948H81.1998V58.252H87.4206V55.948ZM148.584 46.444L147.432 46.4629L147.471 48.8463L149.315 47.3348L148.584 46.444ZM148.469 39.4168L147.735 38.5292L147.308 38.8821L147.317 39.4357L148.469 39.4168ZM175.829 16.78V15.628H175.414L175.095 15.8924L175.829 16.78ZM184.757 16.78L185.487 17.6708L187.978 15.628H184.757V16.78ZM143.919 57.1H142.767V58.252H143.919V57.1ZM143.919 16.78V15.628H142.767V16.78H143.919ZM150.139 16.78H151.291V15.628H150.139V16.78ZM150.139 57.1V58.252H151.291V57.1H150.139ZM176.117 57.1L175.215 57.8161L175.56 58.252H176.117V57.1ZM159.067 35.6152L158.196 34.8619L157.572 35.5839L158.165 36.3313L159.067 35.6152ZM163.099 30.9496L163.995 30.2254L163.129 29.1536L162.228 30.1963L163.099 30.9496ZM184.239 57.1V58.252H186.651L185.134 56.3758L184.239 57.1ZM149.736 46.4251L149.621 39.3979L147.317 39.4357L147.432 46.4629L149.736 46.4251ZM149.203 40.3044L176.563 17.6676L175.095 15.8924L147.735 38.5292L149.203 40.3044ZM175.829 17.932H184.757V15.628H175.829V17.932ZM184.026 15.8892L147.854 45.5532L149.315 47.3348L185.487 17.6708L184.026 15.8892ZM145.071 57.1V16.78H142.767V57.1H145.071ZM143.919 17.932H150.139V15.628H143.919V17.932ZM148.987 16.78V57.1H151.291V16.78H148.987ZM150.139 55.948H143.919V58.252H150.139V55.948ZM177.019 56.3839L159.97 34.8991L158.165 36.3313L175.215 57.8161L177.019 56.3839ZM159.939 36.3684L163.971 31.7028L162.228 30.1963L158.196 34.8619L159.939 36.3684ZM162.203 31.6738L183.343 57.8242L185.134 56.3758L163.995 30.2254L162.203 31.6738ZM184.239 55.948H176.117V58.252H184.239V55.948ZM195.216 57.1L194.17 56.6185L193.418 58.252H195.216V57.1ZM213.763 16.78V15.628H213.025L212.717 16.2985L213.763 16.78ZM220.791 16.78L221.838 16.301L221.531 15.628H220.791V16.78ZM239.223 57.1V58.252H241.016L240.27 56.621L239.223 57.1ZM232.426 57.1L231.379 57.5816L231.688 58.252H232.426V57.1ZM220.099 30.316L219.044 30.7777L219.048 30.7877L219.053 30.7976L220.099 30.316ZM219.178 28.2424L218.119 28.6962L218.123 28.7057L218.127 28.7151L219.178 28.2424ZM217.104 23.2312L216.022 23.6249L216.029 23.6463L216.038 23.6674L217.104 23.2312ZM216.298 20.812L216.258 19.6607L214.765 19.7121L215.194 21.143L216.298 20.812ZM217.968 20.7544L219.051 21.1481L219.634 19.5442L217.929 19.6031L217.968 20.7544ZM216.989 23.3464L215.916 22.9266L215.911 22.9396L215.906 22.9527L216.989 23.3464ZM216.01 25.8808L217.069 26.3346L217.072 26.3258L217.076 26.317L216.01 25.8808ZM214.973 28.3L216.024 28.7727L216.028 28.7633L216.032 28.7538L214.973 28.3ZM213.936 30.5464L212.895 30.0532L212.89 30.0651L213.936 30.5464ZM201.725 57.1V58.252H202.463L202.772 57.5813L201.725 57.1ZM203.338 47.4808L202.27 47.0494L201.63 48.6328H203.338V47.4808ZM205.757 41.4904V40.3384H204.98L204.689 41.059L205.757 41.4904ZM228.106 41.4904L229.226 41.2211L229.014 40.3384H228.106V41.4904ZM229.546 47.4808V48.6328H231.008L230.666 47.2115L229.546 47.4808ZM196.263 57.5814L214.81 17.2614L212.717 16.2985L194.17 56.6185L196.263 57.5814ZM213.763 17.932H220.791V15.628H213.763V17.932ZM219.743 17.2589L238.175 57.5789L240.27 56.621L221.838 16.301L219.743 17.2589ZM239.223 55.948H232.426V58.252H239.223V55.948ZM233.472 56.6184L221.146 29.8344L219.053 30.7976L231.379 57.5816L233.472 56.6184ZM221.155 29.8542C220.884 29.2354 220.575 28.5404 220.228 27.7696L218.127 28.7151C218.472 29.4803 218.777 30.1678 219.044 30.7777L221.155 29.8542ZM220.237 27.7886C219.894 26.9883 219.551 26.1685 219.207 25.3294L217.075 26.2018C217.423 27.0522 217.771 27.8837 218.119 28.6962L220.237 27.7886ZM219.207 25.3294C218.862 24.4846 218.516 23.6398 218.171 22.795L216.038 23.6674C216.384 24.5122 216.729 25.357 217.075 26.2018L219.207 25.3294ZM218.187 22.8375C217.886 22.0109 217.625 21.2255 217.401 20.4809L215.194 21.143C215.432 21.9344 215.708 22.7618 216.022 23.6249L218.187 22.8375ZM216.338 21.9633L218.008 21.9057L217.929 19.6031L216.258 19.6607L216.338 21.9633ZM216.886 20.3607C216.582 21.1963 216.259 22.0516 215.916 22.9266L218.062 23.7662C218.411 22.8748 218.74 22.0021 219.051 21.1481L216.886 20.3607ZM215.906 22.9527C215.605 23.783 215.284 24.6136 214.944 25.4446L217.076 26.317C217.427 25.4583 217.759 24.5994 218.072 23.7401L215.906 22.9527ZM214.951 25.427C214.925 25.4875 214.912 25.5177 214.886 25.5782C214.86 25.6387 214.847 25.6689 214.821 25.7294C214.796 25.7899 214.783 25.8201 214.757 25.8806C214.731 25.9411 214.718 25.9713 214.692 26.0318C214.666 26.0923 214.653 26.1225 214.627 26.183C214.601 26.2435 214.588 26.2737 214.562 26.3342C214.536 26.3947 214.523 26.4249 214.497 26.4854C214.471 26.5459 214.459 26.5761 214.433 26.6366C214.404 26.7038 214.332 26.8717 214.303 26.939C214.274 27.0062 214.202 27.1741 214.173 27.2414C214.145 27.3086 214.073 27.4765 214.044 27.5438C214.015 27.611 213.943 27.7789 213.914 27.8462L216.032 28.7538C216.058 28.6933 216.071 28.6631 216.097 28.6026C216.123 28.5421 216.136 28.5119 216.162 28.4514C216.187 28.3909 216.2 28.3607 216.226 28.3002C216.252 28.2397 216.265 28.2095 216.291 28.149C216.317 28.0885 216.33 28.0583 216.356 27.9978C216.382 27.9373 216.395 27.9071 216.421 27.8466C216.447 27.7861 216.46 27.7559 216.486 27.6954C216.511 27.6349 216.524 27.6047 216.55 27.5442C216.579 27.4769 216.651 27.309 216.68 27.2418C216.709 27.1745 216.781 27.0066 216.81 26.9394C216.838 26.8721 216.91 26.7042 216.939 26.637C216.968 26.5697 217.04 26.4018 217.069 26.3346L214.951 25.427ZM213.923 27.8272C213.58 28.5887 213.237 29.3307 212.895 30.0532L214.977 31.0395C215.326 30.3029 215.675 29.5473 216.024 28.7727L213.923 27.8272ZM212.89 30.0651L200.678 56.6187L202.772 57.5813L214.983 31.0277L212.89 30.0651ZM201.725 55.948H195.216V58.252H201.725V55.948ZM204.406 47.9122L206.825 41.9218L204.689 41.059L202.27 47.0494L204.406 47.9122ZM205.757 42.6424H228.106V40.3384H205.757V42.6424ZM226.986 41.7596L228.426 47.75L230.666 47.2115L229.226 41.2211L226.986 41.7596ZM229.546 46.3288H203.338V48.6328H229.546V46.3288ZM252.537 57.1H251.385V58.252H252.537V57.1ZM252.537 16.78V15.628H251.385V16.78H252.537ZM280.819 18.4504L280.249 19.4518V19.4518L280.819 18.4504ZM285.542 22.9432L284.569 23.5591L285.542 22.9432ZM285.427 35.788L286.388 36.4226L286.394 36.4138L285.427 35.788ZM280.358 40.4536L280.918 41.4606L280.924 41.4571L280.358 40.4536ZM258.758 42.1816V41.0296H257.606V42.1816H258.758ZM258.758 57.1V58.252H259.91V57.1H258.758ZM281.74 57.1L280.796 57.7602L281.137 58.2475L281.732 58.2519L281.74 57.1ZM269.011 38.8984L268.764 37.7731L267.077 38.1431L268.067 39.5586L269.011 38.8984ZM275.577 37.4584L276.519 36.7948L276.078 36.1692L275.331 36.3331L275.577 37.4584ZM289.459 57.1576L289.45 58.3095L291.692 58.3263L290.401 56.494L289.459 57.1576ZM258.758 36.1912H257.606V37.3432H258.758V36.1912ZM277.017 35.2696L277.559 36.286L277.572 36.2791L277.585 36.2718L277.017 35.2696ZM279.724 32.7352L278.755 32.1122L278.75 32.1214L279.724 32.7352ZM279.667 25.996L278.72 26.6517L278.734 26.6727L278.75 26.693L279.667 25.996ZM276.787 23.6344L277.276 22.5913L276.787 23.6344ZM258.758 22.7704V21.6184H257.606V22.7704H258.758ZM253.689 57.1V16.78H251.385V57.1H253.689ZM252.537 17.932H274.31V15.628H252.537V17.932ZM274.31 17.932C276.503 17.932 278.475 18.4425 280.249 19.4518L281.388 17.449C279.246 16.231 276.879 15.628 274.31 15.628V17.932ZM280.249 19.4518C282.046 20.4731 283.48 21.8391 284.569 23.5591L286.516 22.3273C285.223 20.284 283.509 18.6548 281.388 17.449L280.249 19.4518ZM284.569 23.5591C285.636 25.2466 286.176 27.1429 286.176 29.2792H288.48C288.48 26.7306 287.829 24.4029 286.516 22.3273L284.569 23.5591ZM286.176 29.2792C286.176 31.4428 285.604 33.3942 284.46 35.1622L286.394 36.4138C287.784 34.2649 288.48 31.8772 288.48 29.2792H286.176ZM284.465 35.1534C283.304 36.9125 281.754 38.3445 279.792 39.45L280.924 41.4571C283.186 40.1819 285.015 38.5035 286.388 36.4225L284.465 35.1534ZM279.799 39.4465C277.905 40.4985 275.814 41.0296 273.504 41.0296V43.3336C276.185 43.3336 278.664 42.7127 280.918 41.4606L279.799 39.4465ZM273.504 41.0296H258.758V43.3336H273.504V41.0296ZM257.606 42.1816V57.1H259.91V42.1816H257.606ZM258.758 55.948H252.537V58.252H258.758V55.948ZM282.685 56.4397L269.955 38.2381L268.067 39.5586L280.796 57.7602L282.685 56.4397ZM269.258 40.0236L275.824 38.5836L275.331 36.3331L268.764 37.7731L269.258 40.0236ZM274.636 38.122L288.517 57.8212L290.401 56.494L276.519 36.7948L274.636 38.122ZM289.467 56.0056L281.749 55.948L281.732 58.2519L289.45 58.3095L289.467 56.0056ZM258.758 37.3432H273.273V35.0392H258.758V37.3432ZM273.273 37.3432C274.801 37.3432 276.236 36.9921 277.559 36.286L276.475 34.2531C275.495 34.7758 274.434 35.0392 273.273 35.0392V37.3432ZM277.585 36.2718C278.889 35.5329 279.937 34.5597 280.699 33.349L278.75 32.1214C278.206 32.9842 277.449 33.7006 276.449 34.2673L277.585 36.2718ZM280.694 33.3581C281.499 32.105 281.913 30.738 281.913 29.2792H279.609C279.609 30.2779 279.332 31.215 278.755 32.1122L280.694 33.3581ZM281.913 29.2792C281.913 27.8038 281.469 26.4635 280.584 25.2989L278.75 26.693C279.324 27.4485 279.609 28.297 279.609 29.2792H281.913ZM280.614 25.3402C279.794 24.1555 278.667 23.2433 277.276 22.5913L276.298 24.6775C277.365 25.1775 278.158 25.8397 278.72 26.6517L280.614 25.3402ZM277.276 22.5913C275.887 21.9402 274.394 21.6184 272.812 21.6184V23.9224C274.072 23.9224 275.229 24.1766 276.298 24.6775L277.276 22.5913ZM272.812 21.6184H258.758V23.9224H272.812V21.6184ZM257.606 22.7704V36.1912H259.91V22.7704H257.606ZM301.719 57.1H300.567V58.252H301.719V57.1ZM301.719 52.5496L300.864 51.7777L300.567 52.1066V52.5496H301.719ZM329.482 21.7912L330.034 20.7798L329.236 20.3446L328.627 21.0193L329.482 21.7912ZM331.383 22.828V23.98L331.935 21.8166L331.383 22.828ZM303.217 22.828H302.065V23.98H303.217V22.828ZM303.217 16.78V15.628H302.065V16.78H303.217ZM338.238 16.78H339.39V15.628H338.238V16.78ZM338.238 21.2728L339.093 22.0439L339.39 21.7152V21.2728H338.238ZM310.474 52.0888L309.91 53.0928L310.713 53.5448L311.33 52.8599L310.474 52.0888ZM308.631 51.052V49.9H304.233L308.066 52.056L308.631 51.052ZM338.871 51.052H340.023V49.9H338.871V51.052ZM338.871 57.1V58.252H340.023V57.1H338.871ZM302.871 57.1V52.5496H300.567V57.1H302.871ZM302.574 53.3215L330.337 22.5631L328.627 21.0193L300.864 51.7777L302.574 53.3215ZM328.931 22.8025L330.831 23.8393L331.935 21.8166L330.034 20.7798L328.931 22.8025ZM331.383 21.676H303.217V23.98H331.383V21.676ZM304.369 22.828V16.78H302.065V22.828H304.369ZM303.217 17.932H338.238V15.628H303.217V17.932ZM337.086 16.78V21.2728H339.39V16.78H337.086ZM337.382 20.5017L309.618 51.3177L311.33 52.8599L339.093 22.0439L337.382 20.5017ZM311.039 51.0847L309.196 50.0479L308.066 52.056L309.91 53.0928L311.039 51.0847ZM308.631 52.204H338.871V49.9H308.631V52.204ZM337.719 51.052V57.1H340.023V51.052H337.719ZM338.871 55.948H301.719V58.252H338.871V55.948Z" fill="white"/>
</g>
<defs>
<clipPath id="clip0_22_63">
<rect width="358.272" height="121.5" fill="white"/>
</clipPath>
</defs>
</svg>
