<svg width="368" height="350" viewBox="0 0 368 350" fill="none" xmlns="http://www.w3.org/2000/svg">
<mask id="path-1-inside-1_128_133" fill="white">
<path d="M303.272 178.263C308.53 178.378 312.921 174.205 312.664 168.953C311.894 153.196 308.355 137.673 302.185 123.1C294.776 105.6 283.741 89.8692 269.808 76.9454C255.875 64.0216 239.36 54.1984 221.353 48.1236C206.359 43.0651 190.614 40.7013 174.844 41.1157C169.587 41.2539 165.755 45.9457 166.265 51.1799C166.775 56.4141 171.434 60.2026 176.693 60.1259C189.777 59.9351 202.823 61.9709 215.266 66.1687C230.722 71.383 244.897 79.8148 256.857 90.908C268.816 102.001 278.288 115.504 284.648 130.525C289.768 142.618 292.777 155.474 293.569 168.536C293.887 173.785 298.014 178.147 303.272 178.263Z"/>
</mask>
<path d="M303.272 178.263C308.53 178.378 312.921 174.205 312.664 168.953C311.894 153.196 308.355 137.673 302.185 123.1C294.776 105.6 283.741 89.8692 269.808 76.9454C255.875 64.0216 239.36 54.1984 221.353 48.1236C206.359 43.0651 190.614 40.7013 174.844 41.1157C169.587 41.2539 165.755 45.9457 166.265 51.1799C166.775 56.4141 171.434 60.2026 176.693 60.1259C189.777 59.9351 202.823 61.9709 215.266 66.1687C230.722 71.383 244.897 79.8148 256.857 90.908C268.816 102.001 278.288 115.504 284.648 130.525C289.768 142.618 292.777 155.474 293.569 168.536C293.887 173.785 298.014 178.147 303.272 178.263Z" stroke="#FE9101" stroke-width="26.2767" mask="url(#path-1-inside-1_128_133)"/>
<mask id="path-2-inside-2_128_133" fill="white">
<path d="M158.125 298.793C157.272 303.983 160.788 308.916 166.025 309.399C189.238 311.541 212.669 307.613 233.992 297.925C255.315 288.236 273.686 273.171 287.342 254.277C290.422 250.015 289.019 244.122 284.549 241.351C280.08 238.579 274.241 239.984 271.11 244.21C259.475 259.918 244.006 272.457 226.114 280.586C208.223 288.715 188.602 292.12 169.118 290.551C163.876 290.13 158.977 293.604 158.125 298.793Z"/>
</mask>
<path d="M158.125 298.793C157.272 303.983 160.788 308.916 166.025 309.399C189.238 311.541 212.669 307.613 233.992 297.925C255.315 288.236 273.686 273.171 287.342 254.277C290.422 250.015 289.019 244.122 284.549 241.351C280.08 238.579 274.241 239.984 271.11 244.21C259.475 259.918 244.006 272.457 226.114 280.586C208.223 288.715 188.602 292.12 169.118 290.551C163.876 290.13 158.977 293.604 158.125 298.793Z" stroke="black" stroke-width="26.2767" mask="url(#path-2-inside-2_128_133)"/>
<mask id="path-3-inside-3_128_133" fill="white">
<path d="M85.4525 92.0205C81.5408 88.5055 75.4906 88.8077 72.2612 92.9583C62.5742 105.409 55.1382 119.488 50.3174 134.56C44.5279 152.661 42.6415 171.783 44.7826 190.666C46.9236 209.549 53.0435 227.764 62.7386 244.109C70.8116 257.72 81.2109 269.776 93.4396 279.742C97.5163 283.064 103.481 282.004 106.506 277.703C109.531 273.401 108.468 267.491 104.43 264.121C94.3833 255.736 85.8176 245.688 79.1182 234.394C70.7964 220.364 65.5434 204.729 63.7057 188.521C61.8679 172.313 63.4871 155.899 68.4565 140.362C72.457 127.854 78.5557 116.143 86.47 105.722C89.6506 101.534 89.3642 95.5355 85.4525 92.0205Z"/>
</mask>
<path d="M85.4525 92.0205C81.5408 88.5055 75.4906 88.8077 72.2612 92.9583C62.5742 105.409 55.1382 119.488 50.3174 134.56C44.5279 152.661 42.6415 171.783 44.7826 190.666C46.9236 209.549 53.0435 227.764 62.7386 244.109C70.8116 257.72 81.2109 269.776 93.4396 279.742C97.5163 283.064 103.481 282.004 106.506 277.703C109.531 273.401 108.468 267.491 104.43 264.121C94.3833 255.736 85.8176 245.688 79.1182 234.394C70.7964 220.364 65.5434 204.729 63.7057 188.521C61.8679 172.313 63.4871 155.899 68.4565 140.362C72.457 127.854 78.5557 116.143 86.47 105.722C89.6506 101.534 89.3642 95.5355 85.4525 92.0205Z" stroke="black" stroke-width="26.2767" mask="url(#path-3-inside-3_128_133)"/>
<path d="M178.5 95.4004C133.478 95.4004 97 131.878 97 176.9C97 221.923 133.478 258.4 178.5 258.4C223.522 258.4 260 221.923 260 176.9C260 131.878 223.522 95.4004 178.5 95.4004ZM178.5 242.626C142.186 242.626 112.774 213.214 112.774 176.9C112.774 140.587 142.186 111.175 178.5 111.175C214.814 111.175 244.226 140.587 244.226 176.9C244.226 213.214 214.814 242.626 178.5 242.626ZM198.809 208.317L170.909 188.041C169.89 187.285 169.298 186.102 169.298 184.853V130.892C169.298 128.723 171.073 126.949 173.242 126.949H183.758C185.927 126.949 187.702 128.723 187.702 130.892V177.459L209.654 193.43C211.429 194.712 211.79 197.177 210.508 198.951L204.33 207.463C203.049 209.205 200.584 209.599 198.809 208.317Z" fill="black"/>
</svg>
