<svg width="368" height="350" viewBox="0 0 368 350" fill="none" xmlns="http://www.w3.org/2000/svg">
<mask id="path-1-inside-1_96_107" fill="white">
<path d="M210.467 298.816C211.32 304.005 207.804 308.938 202.568 309.422C179.354 311.563 155.923 307.636 134.6 297.947C113.277 288.259 94.9061 273.193 81.2504 254.3C78.1698 250.037 79.5734 244.144 84.0429 241.373C88.5124 238.602 94.3515 240.006 97.4817 244.232C109.117 259.94 124.586 272.48 142.478 280.609C160.369 288.738 179.99 292.142 199.474 290.574C204.716 290.152 209.615 293.626 210.467 298.816Z"/>
</mask>
<path d="M210.467 298.816C211.32 304.005 207.804 308.938 202.568 309.422C179.354 311.563 155.923 307.636 134.6 297.947C113.277 288.259 94.9061 273.193 81.2504 254.3C78.1698 250.037 79.5734 244.144 84.0429 241.373C88.5124 238.602 94.3515 240.006 97.4817 244.232C109.117 259.94 124.586 272.48 142.478 280.609C160.369 288.738 179.99 292.142 199.474 290.574C204.716 290.152 209.615 293.626 210.467 298.816Z" stroke="black" stroke-width="26.2767" mask="url(#path-1-inside-1_96_107)"/>
<mask id="path-2-inside-2_96_107" fill="white">
<path d="M283.14 92.043C287.051 88.528 293.102 88.8302 296.331 92.9808C306.018 105.431 313.454 119.51 318.275 134.583C324.064 152.683 325.951 171.806 323.81 190.689C321.668 209.572 315.549 227.787 305.854 244.132C297.78 257.742 287.381 269.799 275.153 279.764C271.076 283.087 265.112 282.027 262.086 277.725C259.061 273.423 260.125 267.513 264.162 264.143C274.209 255.759 282.774 245.711 289.474 234.416C297.796 220.386 303.049 204.752 304.886 188.543C306.724 172.335 305.105 155.921 300.136 140.384C296.135 127.877 290.036 116.166 282.122 105.745C278.941 101.557 279.228 95.5579 283.14 92.043Z"/>
</mask>
<path d="M283.14 92.043C287.051 88.528 293.102 88.8302 296.331 92.9808C306.018 105.431 313.454 119.51 318.275 134.583C324.064 152.683 325.951 171.806 323.81 190.689C321.668 209.572 315.549 227.787 305.854 244.132C297.78 257.742 287.381 269.799 275.153 279.764C271.076 283.087 265.112 282.027 262.086 277.725C259.061 273.423 260.125 267.513 264.162 264.143C274.209 255.759 282.774 245.711 289.474 234.416C297.796 220.386 303.049 204.752 304.886 188.543C306.724 172.335 305.105 155.921 300.136 140.384C296.135 127.877 290.036 116.166 282.122 105.745C278.941 101.557 279.228 95.5579 283.14 92.043Z" stroke="black" stroke-width="26.2767" mask="url(#path-2-inside-2_96_107)"/>
<mask id="path-3-inside-3_96_107" fill="white">
<path d="M65.32 178.285C60.0623 178.401 55.6713 174.228 55.9281 168.975C56.6985 153.219 60.2372 137.695 66.4069 123.123C73.816 105.622 84.851 89.8917 98.7841 76.9679C112.717 64.0441 129.232 54.2209 147.239 48.146C162.233 43.0875 177.978 40.7238 193.748 41.1382C199.005 41.2763 202.837 45.9682 202.327 51.2024C201.817 56.4365 197.158 60.2251 191.899 60.1484C178.815 59.9575 165.769 61.9933 153.326 66.1911C137.87 71.4055 123.695 79.8373 111.735 90.9305C99.7758 102.024 90.3039 115.526 83.9442 130.548C78.8243 142.64 75.8152 155.496 75.0234 168.558C74.7052 173.808 70.5777 178.17 65.32 178.285Z"/>
</mask>
<path d="M65.32 178.285C60.0623 178.401 55.6713 174.228 55.9281 168.975C56.6985 153.219 60.2372 137.695 66.4069 123.123C73.816 105.622 84.851 89.8917 98.7841 76.9679C112.717 64.0441 129.232 54.2209 147.239 48.146C162.233 43.0875 177.978 40.7238 193.748 41.1382C199.005 41.2763 202.837 45.9682 202.327 51.2024C201.817 56.4365 197.158 60.2251 191.899 60.1484C178.815 59.9575 165.769 61.9933 153.326 66.1911C137.87 71.4055 123.695 79.8373 111.735 90.9305C99.7758 102.024 90.3039 115.526 83.9442 130.548C78.8243 142.64 75.8152 155.496 75.0234 168.558C74.7052 173.808 70.5777 178.17 65.32 178.285Z" stroke="#FE9101" stroke-width="26.2767" mask="url(#path-3-inside-3_96_107)"/>
<path d="M253.281 170.109L246.554 144.164C243.618 133.4 233.832 125.571 223.068 125.571H219.643V115.786C219.643 110.382 215.261 106 209.857 106H170.714C165.311 106 160.929 110.382 160.929 115.786V125.571H157.504C146.739 125.571 136.954 133.4 134.018 144.164L127.29 170.109C118.547 172.066 112 179.842 112 189.179V203.857C112 211.083 115.96 217.325 121.786 220.713V233.214C121.786 238.618 126.168 243 131.571 243H141.357C146.761 243 151.143 238.618 151.143 233.214V223.429H229.429V233.214C229.429 238.618 233.811 243 239.214 243H249C254.404 243 258.786 238.618 258.786 233.214V220.713C264.611 217.322 268.571 211.08 268.571 203.857V189.179C268.571 179.842 262.024 172.066 253.281 170.109ZM141.357 203.857C135.954 203.857 131.571 199.475 131.571 194.071C131.571 188.668 135.954 184.286 141.357 184.286C146.761 184.286 151.143 188.668 151.143 194.071C151.143 199.475 146.761 203.857 141.357 203.857ZM147.641 169.607L152.901 149.314C153.583 146.819 155.834 145.143 157.507 145.143H223.071C224.744 145.143 226.994 146.819 227.612 149.075L232.93 169.607H147.641ZM239.214 203.857C233.811 203.857 229.429 199.475 229.429 194.071C229.429 188.668 233.811 184.286 239.214 184.286C244.618 184.286 249 188.668 249 194.071C249 199.475 244.618 203.857 239.214 203.857Z" fill="black"/>
</svg>
