<svg width="117" height="116" viewBox="0 0 117 116" fill="none" xmlns="http://www.w3.org/2000/svg">
<path d="M58.2351 29.1797C54.6594 29.1797 51.164 30.24 48.1909 32.2266C45.2177 34.2131 42.9005 37.0367 41.5321 40.3403C40.1637 43.6438 39.8057 47.2789 40.5033 50.7859C41.2009 54.293 42.9228 57.5144 45.4512 60.0428C47.9796 62.5712 51.201 64.2931 54.708 64.9907C58.2151 65.6883 61.8502 65.3302 65.1537 63.9619C68.4573 62.5935 71.2808 60.2762 73.2674 57.3031C75.254 54.33 76.3143 50.8346 76.3143 47.2589C76.3143 42.464 74.4095 37.8655 71.019 34.475C67.6285 31.0845 63.03 29.1797 58.2351 29.1797ZM58.2351 58.1064C56.0897 58.1064 53.9924 57.4702 52.2086 56.2782C50.4247 55.0863 49.0343 53.3922 48.2133 51.41C47.3923 49.4279 47.1775 47.2468 47.596 45.1426C48.0146 43.0384 49.0477 41.1056 50.5648 39.5885C52.0818 38.0715 54.0147 37.0383 56.1189 36.6198C58.2231 36.2012 60.4042 36.4161 62.3863 37.2371C64.3684 38.0581 66.0625 39.4485 67.2545 41.2323C68.4464 43.0162 69.0826 45.1134 69.0826 47.2589C69.0794 50.1348 67.9355 52.892 65.9019 54.9256C63.8683 56.9592 61.111 58.1031 58.2351 58.1064Z" fill="black"/>
<path d="M58.2352 7.48535C48.2232 7.48535 38.436 10.4543 30.1113 16.0166C21.7866 21.579 15.2982 29.4851 11.4668 38.735C7.63537 47.9849 6.63289 58.1632 8.58614 67.9829C10.5394 77.8025 15.3606 86.8224 22.4402 93.902C29.5198 100.982 38.5397 105.803 48.3594 107.756C58.179 109.709 68.3574 108.707 77.6073 104.875C86.8572 101.044 94.7632 94.5557 100.326 86.231C105.888 77.9063 108.857 68.1191 108.857 58.1071C108.842 44.686 103.504 31.8189 94.0135 22.3288C84.5233 12.8387 71.6563 7.50047 58.2352 7.48535ZM36.5402 95.6268V90.6496C36.5433 87.7736 37.6872 85.0164 39.7208 82.9827C41.7544 80.9491 44.5117 79.8052 47.3877 79.8021H69.0827C71.9587 79.8052 74.7159 80.9491 76.7496 82.9827C78.7832 85.0164 79.9271 87.7736 79.9302 90.6496V95.6268C73.3464 99.4712 65.8593 101.497 58.2352 101.497C50.6111 101.497 43.124 99.4712 36.5402 95.6268ZM87.1348 90.3813C87.0629 85.6382 85.1303 81.1133 81.7536 77.7816C78.3769 74.45 73.8263 72.5785 69.0827 72.5704H47.3877C42.6441 72.5785 38.0935 74.45 34.7168 77.7816C31.34 81.1133 29.4075 85.6382 29.3356 90.3813C22.7785 84.5264 18.1545 76.8178 16.0757 68.2765C13.997 59.7351 14.5616 50.7638 17.6949 42.5505C20.8282 34.3372 26.3823 27.2693 33.6217 22.2827C40.8612 17.2961 49.4445 14.626 58.2352 14.626C67.0259 14.626 75.6092 17.2961 82.8487 22.2827C90.0881 27.2693 95.6422 34.3372 98.7755 42.5505C101.909 50.7638 102.473 59.7351 100.395 68.2765C98.3159 76.8178 93.6919 84.5264 87.1348 90.3813Z" fill="black"/>
</svg>
